<svg xmlns="http://www.w3.org/2000/svg" width="16" height="16" viewBox="0 0 16 16"><g><g><path fill="#35424b" d="M.565 10.928l-.053-.127a10.074 10.074 0 0 1-.203-.625l-.029-.11a9.44 9.44 0 0 1-.138-.588c-.014-.074-.064-.421-.064-.421a5.341 5.341 0 0 1-.04-.302A7.902 7.902 0 0 1 0 8c0-.253.014-.505.038-.757.01-.105.026-.211.043-.315 0 0 .047-.332.061-.402.035-.187.08-.369.127-.55l.04-.153c.055-.193.121-.391.193-.588l.053-.127C1.767 2.051 4.76 0 8 0c3.245 0 6.233 2.035 7.433 5.065l.048.122c.086.232.155.443.216.657l.025.1c.053.198.101.391.137.589l.057.368c.017.115.035.23.046.348.024.248.038.499.038.751s-.014.503-.038.753c-.011.122-.03.242-.049.361l-.056.364a6.97 6.97 0 0 1-.134.574l-.027.109c-.06.209-.129.42-.207.628C14.308 13.905 11.299 16 8 16c-3.248 0-6.236-2.038-7.435-5.072zm7.906 4.142l.532-.263c.964-.477 1.814-1.643 2.331-3.2l.161-.482H8.471zm-3.798-3.463c.516 1.558 1.364 2.725 2.326 3.201l.529.262v-3.945H4.512zm7.696-.216a9.694 9.694 0 0 1-.702 1.797l-1.117 1.531 1.664-1.071c.026-.021.274-.212.335-.264.079-.066.155-.138.232-.209.15-.141.205-.191.256-.244.076-.076.148-.158.219-.24l.218-.248a14.918 14.918 0 0 0 .404-.549c.048-.072.092-.144.134-.217l.325-.552h-1.892zm-10.375.292a7.098 7.098 0 0 0 1.788 1.957l1.386.837-.841-1.297a9.73 9.73 0 0 1-.698-1.789l-.076-.266H1.649zm10.713-5.449a13.25 13.25 0 0 1 0 3.531l-.057.416h2.059l.075-.267a7.51 7.51 0 0 0 .163-.718l.02-.134c.06-.381.088-.729.088-1.062 0-.335-.028-.683-.088-1.064l-.018-.122a7.636 7.636 0 0 0-.165-.728l-.075-.268H12.65zm-4.236 3.947h3.219l.048-.31a12.41 12.41 0 0 0 0-3.743l-.048-.31H8.471zm-4.21-4.052a12.213 12.213 0 0 0 0 3.742l.047.31h3.22V5.818h-3.22zm-3.045-.043a7.354 7.354 0 0 0-.162.713l-.021.141C.973 7.322.945 7.669.945 8c0 .335.028.681.088 1.058l.02.133c.044.256.099.494.162.722l.075.268h2.058l-.056-.416a13.06 13.06 0 0 1 0-3.531l.057-.416H1.291zm10.451-3.273c.282.546.519 1.149.703 1.795l.075.266h1.896l-.33-.554a5.164 5.164 0 0 0-.132-.213 21.22 21.22 0 0 0-.396-.539c-.045-.055-.231-.264-.231-.264-.069-.078-.139-.158-.215-.234l-.215-.206a7.627 7.627 0 0 0-.273-.249c-.062-.052-.279-.219-.279-.219l-1.559-1.023zM8.471 4.874h3.024l-.16-.482c-.518-1.557-1.369-2.723-2.333-3.199L8.47.93zM6.999 1.193c-.961.476-1.809 1.642-2.326 3.199l-.16.482h3.015V.93zM3.782 2.357a7.11 7.11 0 0 0-1.788 1.95l-.345.557h1.904l.076-.265a9.68 9.68 0 0 1 .698-1.783l1.03-1.578z"/></g></g></svg>