<svg xmlns="http://www.w3.org/2000/svg" width="23" height="27" viewBox="0 0 23 27"><g><g><g><path fill="#22c3ca" d="M9.952 27a1.12 1.12 0 0 1 0-2.239h2.258v-1.737a13.265 13.265 0 0 1-8.305-3.843A13.243 13.243 0 0 1 0 9.755 13.24 13.24 0 0 1 3.905.329C4.116.117 4.398 0 4.697 0c.298 0 .58.117.79.329.435.436.435 1.146.002 1.581a11.018 11.018 0 0 0-3.25 7.845 11.02 11.02 0 0 0 3.249 7.843 11.022 11.022 0 0 0 7.842 3.247c2.963 0 5.748-1.153 7.844-3.247.211-.212.492-.327.792-.327.295 0 .578.115.79.326.212.213.329.494.328.795 0 .298-.117.579-.329.79a13.276 13.276 0 0 1-8.307 3.842v1.737h2.26a1.12 1.12 0 1 1 0 2.239z"/></g><g><path fill="#22c3ca" d="M12.983 19.21c-5.295 0-9.603-4.308-9.603-9.605C3.38 4.31 7.688 0 12.983 0c5.298 0 9.609 4.309 9.609 9.605l-2.79 2.79a7.316 7.316 0 0 0 .55-2.795l-7.369-7.362c-4.06 0-7.364 3.303-7.364 7.362 0 4.06 3.304 7.363 7.364 7.363.991 0 1.937-.197 2.801-.553zm6.819-6.816l-4.018 4.016a7.41 7.41 0 0 0 4.018-4.016z"/></g></g></g></svg>