<svg xmlns="http://www.w3.org/2000/svg" width="40" height="40" viewBox="0 0 40 40"><g><g><path fill="#22c3ca" d="M20 0c11.045 0 20 8.957 20 20 0 11.047-8.955 20-20 20S0 31.047 0 20C0 8.958 8.955 0 20 0zm6.25 20A6.257 6.257 0 0 1 20 26.25 6.257 6.257 0 0 1 13.75 20 6.257 6.257 0 0 1 20 13.75zm-2.073.005c0-2.3-1.872-4.172-4.172-4.172a4.176 4.176 0 0 0-4.172 4.172c0 2.3 1.872 4.172 4.172 4.172zm3.886-6.65a1.428 1.428 0 1 1-1.427-1.428zm4.437.916A6.778 6.778 0 0 0 25.73 7.5H14.27a6.778 6.778 0 0 0-6.77 6.77v11.46a6.779 6.779 0 0 0 6.77 6.77h11.46a6.778 6.778 0 0 0 6.77-6.77z"/></g></g></svg>