<svg xmlns="http://www.w3.org/2000/svg" width="16" height="19" viewBox="0 0 16 19"><g><g><path fill="#35424b" d="M16 7.969c0 4.315-7.418 10.665-7.734 10.933a.413.413 0 0 1-.532 0C7.418 18.634 0 12.284 0 7.969 0 3.575 3.588 0 8 0l1.088 1.084A7.049 7.049 0 0 0 8 1C4.14 1 1 4.128 1 7.972c0 3.422 5.704 8.677 7 9.827l7-9.827c0-.368-.029-.73-.084-1.083zm-4 .008c0 2.193-1.79 3.975-3.992 3.975-2.201 0-3.992-1.782-3.992-3.975S5.806 4 8.008 4l1.308 1.303A2.998 2.998 0 0 0 5 7.988a2.998 2.998 0 0 0 3 2.988l3-2.988c0-.47-.11-.915-.304-1.31z"/></g></g></svg>