<svg xmlns="http://www.w3.org/2000/svg" width="17" height="24" viewBox="0 0 17 24"><g><g><g><path fill="#22c3ca" d="M16.324 14.036a.527.527 0 0 1-.74-.083l-3.11-3.898-.402 5.853c-.072.921-.797 1.639-1.65 1.639h-.174a.52.52 0 0 1 .379.497v5.434a.526.526 0 1 1-1.053 0v-5.434a.52.52 0 0 1 .379-.497H6.57a.52.52 0 0 1 .379.497v5.434a.525.525 0 1 1-1.053 0v-5.434a.52.52 0 0 1 .379-.497H6.1c-.856 0-1.582-.719-1.65-1.636l-.403-5.853-3.108 3.895a.53.53 0 0 1-.741.083.527.527 0 0 1-.082-.741l3.968-4.972c.07-.177.169-.343.305-.489.319-.345.79-.544 1.286-.544h5.174c.494 0 .96.196 1.28.538.135.144.234.31.305.486l3.973 4.982zm-4.84-5.234l-.19-.238c-.024-.031-.036-.069-.053-.103a.707.707 0 0 0-.383-.117H5.676a.723.723 0 0 0-.384.117c-.018.035-.028.072-.053.103l-.194.243c-.007.04-.023.074-.02.122l.476 6.906c.027.357.303.659.6.659h4.329c.297 0 .572-.303.6-.664l.476-6.898z"/></g><g><path fill="#22c3ca" d="M5.58 2.683A2.687 2.687 0 0 1 8.263 0a2.688 2.688 0 0 1 2.685 2.683 2.689 2.689 0 0 1-2.685 2.685zm1.054.005c0 .903.732 1.637 1.629 1.637a1.636 1.636 0 0 0 0-3.271z"/></g></g></g></svg>