<svg xmlns="http://www.w3.org/2000/svg" width="16" height="16" viewBox="0 0 16 16"><g><g><g><path fill="#22c3ca" d="M12.616 16.099c-3.072 0-6.254-1.42-8.73-3.896-2.6-2.6-4.019-5.866-3.943-9.011l.003-.118.072-.092c.21-.268.431-.521.66-.751A8.333 8.333 0 0 1 3.572.348.931.931 0 0 1 3.907.29c.379 0 1 .202 1.131.566.385 1.067.873 2.464 1.225 3.798.076.284-.03 1.017-.371 1.231l-1.259.799c-.084.052-.118.147-.132.217-.042.215.037.492.206.723.493.677 1.07 1.352 1.712 2.006.648.637 1.321 1.21 1.996 1.701.344.252.816.277.94.077l.8-1.263c.247-.386 1.01-.39 1.018-.39.075 0 .14.006.197.018 1.63.364 2.599.677 3.838 1.24.384.173.659 1.004.481 1.456a8.296 8.296 0 0 1-1.879 2.89 8.725 8.725 0 0 1-.752.661l-.093.073zM4.34 11.65l.053.053c2.34 2.34 5.34 3.685 8.224 3.685l.097-.002c.212-.17.412-.348.595-.531a7.604 7.604 0 0 0 1.718-2.643c.046-.118-.064-.49-.154-.58-1.147-.512-2.08-.813-3.657-1.164-.227-.004-.44.058-.493.098l-.765 1.22c-.342.554-1.281.618-1.962.12a18.562 18.562 0 0 1-2.079-1.774 18.816 18.816 0 0 1-1.784-2.089c-.286-.392-.409-.87-.329-1.278.058-.296.219-.54.453-.684l1.256-.797c.024-.05.08-.355.062-.451C5.23 3.528 4.75 2.152 4.37 1.098 4.344 1.104 4.102 1 3.907 1c-.054 0-.077.01-.079.01-.999.387-1.89.966-2.646 1.722-.182.183-.36.383-.53.593C.62 6.243 1.959 9.27 4.339 11.65z"/></g><g><path fill="#22c3ca" d="M15.702 8.196a.356.356 0 0 1-.355-.356c0-3.986-3.244-7.229-7.231-7.229a.356.356 0 0 1 0-.711c4.38 0 7.942 3.562 7.942 7.94 0 .197-.16.356-.356.356"/></g><g><path fill="#22c3ca" d="M13.474 8.198a.356.356 0 0 1-.356-.356 5.008 5.008 0 0 0-5.002-5 .355.355 0 1 1 0-.712 5.719 5.719 0 0 1 5.713 5.712c0 .197-.159.356-.355.356"/></g><g><path fill="#22c3ca" d="M11.126 8.19a.356.356 0 0 1-.355-.355 2.657 2.657 0 0 0-2.655-2.654.355.355 0 1 1 0-.711 3.37 3.37 0 0 1 3.366 3.365c0 .196-.16.356-.356.356"/></g></g></g></svg>